<?xml version="1.0" standalone="no"?>
<!DOCTYPE svg PUBLIC "-//W3C//DTD SVG 20010904//EN"
 "http://www.w3.org/TR/2001/REC-SVG-20010904/DTD/svg10.dtd">
<svg version="1.0" xmlns="http://www.w3.org/2000/svg"
 width="260.000000pt" height="260.000000pt" viewBox="0 0 260.000000 260.000000"
 preserveAspectRatio="xMidYMid meet">
<metadata>
Created by potrace 1.11, written by Peter Selinger 2001-2013
</metadata>
<g transform="translate(0.000000,260.000000) scale(0.100000,-0.100000)"
fill="#000000" stroke="none">
<path d="M345 1719 c-165 -33 -295 -160 -335 -328 -17 -72 -8 -201 20 -273 43
-115 160 -208 295 -236 89 -19 239 -9 331 22 45 15 94 36 110 45 l28 17 2 127
c1 81 7 133 14 142 7 8 28 17 46 21 19 3 32 9 29 13 -9 9 -345 8 -345 -1 0 -5
7 -8 16 -8 31 0 86 -33 95 -57 28 -75 13 -212 -28 -255 -58 -61 -196 -72 -291
-24 -94 47 -150 128 -175 251 -52 260 76 501 281 529 91 12 201 -27 260 -92
32 -35 82 -128 82 -151 0 -6 6 -11 13 -11 9 0 12 28 10 112 -2 155 0 147 -27
117 l-23 -26 -39 20 c-93 48 -255 68 -369 46z"/>
<path d="M2104 1711 c-317 -89 -419 -498 -180 -724 124 -118 419 -147 575 -56
l34 20 28 -27 c16 -15 31 -25 34 -22 3 3 4 63 3 134 -3 116 -4 126 -16 99 -34
-77 -47 -98 -87 -139 -68 -68 -124 -91 -225 -91 -98 0 -147 19 -216 87 -188
182 -133 579 96 690 34 16 64 22 120 22 66 0 82 -4 138 -34 74 -39 121 -91
162 -175 l29 -60 1 139 0 140 -32 -31 -33 -31 -39 20 c-113 58 -267 74 -392
39z"/>
<path d="M1104 1669 c-41 -12 -101 -73 -108 -112 -11 -62 10 -121 63 -171 17
-17 31 -33 31 -36 0 -3 -17 -16 -39 -28 -50 -29 -119 -96 -132 -130 -32 -81
-11 -178 47 -219 98 -69 222 -51 330 49 25 23 46 39 47 37 55 -81 114 -124
177 -132 40 -4 105 15 135 41 36 31 75 83 75 100 -1 13 -6 10 -21 -11 -41 -55
-120 -74 -169 -40 -34 22 -120 115 -120 129 0 6 30 48 66 93 90 111 177 179
237 184 9 1 17 5 17 10 0 4 -78 6 -172 3 -194 -5 -178 -3 -178 -13 0 -5 13 -8
28 -9 97 -3 117 -38 72 -122 -17 -32 -43 -72 -59 -91 l-27 -33 -46 63 c-26 35
-69 86 -97 113 l-51 50 36 30 c115 94 76 244 -64 251 -26 1 -61 -2 -78 -6z
m99 -45 c32 -31 43 -94 28 -151 -19 -69 -35 -73 -87 -22 -47 46 -70 103 -58
142 18 60 73 75 117 31z m-25 -356 c70 -71 142 -164 142 -182 0 -35 -101 -84
-163 -81 -59 3 -91 19 -117 55 -31 43 -36 100 -15 156 16 43 69 114 84 114 4
0 35 -28 69 -62z"/>
</g>
</svg>
